<mxfile host="app.diagrams.net" modified="2023-06-17T14:35:56.963Z" agent="Mozilla/5.0 (Windows NT 10.0; Win64; x64) AppleWebKit/537.36 (KHTML, like Gecko) Chrome/114.0.0.0 Safari/537.36 Edg/114.0.1823.51" version="21.3.7" etag="Mm26MD2szkdtwASLPt-y" type="github">
  <diagram name="第 1 页" id="CxVxzb0iaTSqbLYkik6z">
    <mxGraphModel>
      <root>
        <mxCell id="0" />
        <mxCell id="1" parent="0" />
      </root>
    </mxGraphModel>
  </diagram>
</mxfile>
